<svg viewBox="0 0 200 200" fill="none" stroke="#FFFFFF" stroke-width="2.5" xmlns="http://www.w3.org/2000/svg">
    <!-- Wavy teeth outline -->
    <path d="M 100,12 
             C 98,8 100,6 102,8 C 104,10 106,8 108,10 C 110,12 112,10 114,12 C 116,14 118,12 120,14 
             C 122,16 124,14 126,16 C 128,18 130,16 132,18 C 134,20 136,18 138,20 C 140,22 142,20 144,22
             C 146,24 148,22 150,24 C 152,26 154,24 156,26 C 158,28 160,26 162,28 C 164,30 166,28 168,30
             C 170,32 172,30 174,32 C 176,34 178,32 180,34 C 182,36 184,34 186,36 C 188,38 190,38 190,42
             A 88 88 0 0 1 186,58 C 184,60 182,58 180,60 C 178,62 176,60 174,62 C 172,64 170,62 168,64
             C 166,66 164,64 162,66 C 160,68 158,66 156,68 C 154,70 152,68 150,70 C 148,72 146,70 144,72
             C 142,74 140,72 138,74 C 136,76 134,74 132,76 C 130,78 128,76 126,78 C 124,80 122,78 120,80
             C 118,82 116,80 114,82 C 112,84 110,82 108,84 C 106,86 104,84 102,86 C 100,88 98,88 98,92
             A 88 88 0 0 1 58,186 C 56,188 54,186 52,188 A 88 88 0 0 1 14,158 C 12,156 10,158 8,156 
             A 88 88 0 0 1 8,42 C 10,40 12,42 14,40 A 88 88 0 0 1 52,10 C 54,8 56,10 58,8 A 88 88 0 0 1 98,12 Z" 
          fill="currentColor" opacity="0.2"/>
    
    <!-- Outer ring -->
    <circle cx="100" cy="100" r="88" stroke-width="2.5"/>
    <circle cx="100" cy="100" r="75" stroke-width="1.8"/>
    
    <!-- 8 circular holes -->
    <circle cx="100" cy="35" r="9" stroke-width="2.5"/>
    <circle cx="147" cy="53" r="9" stroke-width="2.5"/>
    <circle cx="165" cy="100" r="9" stroke-width="2.5"/>
    <circle cx="147" cy="147" r="9" stroke-width="2.5"/>
    <circle cx="100" cy="165" r="9" stroke-width="2.5"/>
    <circle cx="53" cy="147" r="9" stroke-width="2.5"/>
    <circle cx="35" cy="100" r="9" stroke-width="2.5"/>
    <circle cx="53" cy="53" r="9" stroke-width="2.5"/>
    
    <!-- Center hub -->
    <circle cx="100" cy="100" r="48" stroke-width="2.5"/>
    <circle cx="100" cy="100" r="38" stroke-width="1.8"/>
    <circle cx="100" cy="100" r="22" stroke-width="2.5"/>
</svg>
